<svg xmlns="http://www.w3.org/2000/svg" viewBox="0 0 100 100">
  <circle cx="50" cy="50" r="48" fill="#78909c" stroke="#455a64" stroke-width="3"/>
  <!-- Gear -->
  <circle cx="50" cy="50" r="18" fill="none" stroke="#cfd8dc" stroke-width="4"/>
  <circle cx="50" cy="50" r="8" fill="#cfd8dc"/>
  <!-- Gear teeth -->
  <rect x="47" y="26" width="6" height="10" fill="#cfd8dc" rx="1"/>
  <rect x="47" y="64" width="6" height="10" fill="#cfd8dc" rx="1"/>
  <rect x="26" y="47" width="10" height="6" fill="#cfd8dc" rx="1"/>
  <rect x="64" y="47" width="10" height="6" fill="#cfd8dc" rx="1"/>
  <rect x="31" y="31" width="8" height="6" fill="#cfd8dc" rx="1" transform="rotate(45 35 34)"/>
  <rect x="61" y="31" width="8" height="6" fill="#cfd8dc" rx="1" transform="rotate(-45 65 34)"/>
  <rect x="31" y="63" width="8" height="6" fill="#cfd8dc" rx="1" transform="rotate(-45 35 66)"/>
  <rect x="61" y="63" width="8" height="6" fill="#cfd8dc" rx="1" transform="rotate(45 65 66)"/>
</svg>