<svg xmlns="http://www.w3.org/2000/svg" viewBox="0 0 100 100">
  <circle cx="50" cy="50" r="48" fill="#e65100" stroke="#bf360c" stroke-width="3"/>
  <!-- Four element swirl -->
  <path d="M50 25 Q65 30 65 45 Q65 55 50 50 Q35 45 35 35 Q35 25 50 25" fill="#f44336" opacity="0.8"/>
  <path d="M75 50 Q70 65 55 65 Q45 65 50 50 Q55 35 65 35 Q75 35 75 50" fill="#2196f3" opacity="0.8"/>
  <path d="M50 75 Q35 70 35 55 Q35 45 50 50 Q65 55 65 65 Q65 75 50 75" fill="#4caf50" opacity="0.8"/>
  <path d="M25 50 Q30 35 45 35 Q55 35 50 50 Q45 65 35 65 Q25 65 25 50" fill="#ffeb3b" opacity="0.8"/>
  <circle cx="50" cy="50" r="6" fill="#fff" opacity="0.9"/>
</svg>