<svg xmlns="http://www.w3.org/2000/svg" viewBox="0 0 100 100">
  <circle cx="50" cy="50" r="48" fill="#6d4c41" stroke="#4e342e" stroke-width="3"/>
  <!-- Large fist -->
  <path d="M30 45 Q28 35 35 30 L40 28 Q45 26 48 32 L50 28 Q54 24 56 30 L58 26 Q62 24 63 30 L65 28 Q70 30 68 38 L70 50 Q72 60 65 68 L35 68 Q28 60 30 50 Z" fill="#d7ccc8" stroke="#8d6e63" stroke-width="1.5"/>
  <!-- Knuckle lines -->
  <path d="M38 38 Q40 36 42 38" stroke="#8d6e63" stroke-width="1" fill="none"/>
  <path d="M48 35 Q50 33 52 35" stroke="#8d6e63" stroke-width="1" fill="none"/>
  <path d="M56 34 Q58 32 60 34" stroke="#8d6e63" stroke-width="1" fill="none"/>
</svg>