<svg xmlns="http://www.w3.org/2000/svg" viewBox="0 0 100 100">
  <circle cx="50" cy="50" r="48" fill="#1a237e" stroke="#0d1542" stroke-width="3"/>
  <!-- Ooze blob -->
  <path d="M25 55 Q22 40 35 35 Q40 28 50 30 Q60 28 65 35 Q78 40 75 55 Q78 65 70 72 Q60 78 50 75 Q40 78 30 72 Q22 65 25 55" fill="#4caf50" opacity="0.7" stroke="#2e7d32" stroke-width="1.5"/>
  <!-- Bubbles -->
  <circle cx="40" cy="45" r="4" fill="#81c784" opacity="0.6"/>
  <circle cx="55" cy="50" r="5" fill="#81c784" opacity="0.5"/>
  <circle cx="45" cy="60" r="3" fill="#81c784" opacity="0.6"/>
  <circle cx="62" cy="42" r="3" fill="#81c784" opacity="0.5"/>
  <!-- Drips -->
  <path d="M35 72 Q34 80 36 85" stroke="#4caf50" stroke-width="2" fill="none" opacity="0.5"/>
  <path d="M60 72 Q62 78 61 82" stroke="#4caf50" stroke-width="2" fill="none" opacity="0.5"/>
</svg>