<svg xmlns="http://www.w3.org/2000/svg" viewBox="0 0 100 100">
  <circle cx="50" cy="50" r="48" fill="#424242" stroke="#212121" stroke-width="3"/>
  <!-- Skull -->
  <path d="M35 40 Q35 22 50 20 Q65 22 65 40 L65 48 Q65 55 50 55 Q35 55 35 48 Z" fill="#e0e0e0" stroke="#9e9e9e" stroke-width="1"/>
  <!-- Eye sockets -->
  <circle cx="42" cy="36" r="5" fill="#212121"/>
  <circle cx="58" cy="36" r="5" fill="#212121"/>
  <!-- Nose -->
  <polygon points="48,45 50,42 52,45" fill="#424242"/>
  <!-- Teeth -->
  <rect x="42" y="49" width="3" height="4" fill="#e0e0e0" stroke="#9e9e9e" stroke-width="0.5"/>
  <rect x="46" y="49" width="3" height="4" fill="#e0e0e0" stroke="#9e9e9e" stroke-width="0.5"/>
  <rect x="50" y="49" width="3" height="4" fill="#e0e0e0" stroke="#9e9e9e" stroke-width="0.5"/>
  <rect x="54" y="49" width="3" height="4" fill="#e0e0e0" stroke="#9e9e9e" stroke-width="0.5"/>
  <!-- Ribcage -->
  <line x1="50" y1="58" x2="50" y2="80" stroke="#e0e0e0" stroke-width="2"/>
  <path d="M38 62 Q44 60 50 62 Q56 60 62 62" stroke="#e0e0e0" stroke-width="2" fill="none"/>
  <path d="M40 68 Q45 66 50 68 Q55 66 60 68" stroke="#e0e0e0" stroke-width="2" fill="none"/>
  <path d="M42 74 Q46 72 50 74 Q54 72 58 74" stroke="#e0e0e0" stroke-width="2" fill="none"/>
</svg>