<svg xmlns="http://www.w3.org/2000/svg" viewBox="0 0 100 100">
  <circle cx="50" cy="50" r="48" fill="#3e2723" stroke="#1b0f0a" stroke-width="3"/>
  <!-- Swarm of small creatures -->
  <circle cx="30" cy="35" r="4" fill="#8d6e63"/><circle cx="30" cy="35" r="1.5" fill="#d7ccc8"/>
  <circle cx="45" cy="28" r="4" fill="#795548"/><circle cx="45" cy="28" r="1.5" fill="#d7ccc8"/>
  <circle cx="60" cy="32" r="4" fill="#8d6e63"/><circle cx="60" cy="32" r="1.5" fill="#d7ccc8"/>
  <circle cx="72" cy="42" r="4" fill="#795548"/><circle cx="72" cy="42" r="1.5" fill="#d7ccc8"/>
  <circle cx="35" cy="50" r="4" fill="#6d4c41"/><circle cx="35" cy="50" r="1.5" fill="#d7ccc8"/>
  <circle cx="50" cy="45" r="4" fill="#8d6e63"/><circle cx="50" cy="45" r="1.5" fill="#d7ccc8"/>
  <circle cx="65" cy="55" r="4" fill="#795548"/><circle cx="65" cy="55" r="1.5" fill="#d7ccc8"/>
  <circle cx="28" cy="65" r="4" fill="#8d6e63"/><circle cx="28" cy="65" r="1.5" fill="#d7ccc8"/>
  <circle cx="45" cy="62" r="4" fill="#6d4c41"/><circle cx="45" cy="62" r="1.5" fill="#d7ccc8"/>
  <circle cx="58" cy="70" r="4" fill="#795548"/><circle cx="58" cy="70" r="1.5" fill="#d7ccc8"/>
  <circle cx="72" cy="65" r="4" fill="#8d6e63"/><circle cx="72" cy="65" r="1.5" fill="#d7ccc8"/>
  <circle cx="40" cy="75" r="4" fill="#6d4c41"/><circle cx="40" cy="75" r="1.5" fill="#d7ccc8"/>
</svg>