<svg xmlns="http://www.w3.org/2000/svg" viewBox="0 0 100 100">
  <circle cx="50" cy="50" r="48" fill="#33691e" stroke="#1a3a0f" stroke-width="3"/>
  <!-- Head -->
  <path d="M35 40 Q35 22 50 20 Q65 22 65 40 L65 50 Q65 60 50 62 Q35 60 35 50 Z" fill="#827717" stroke="#558b2f" stroke-width="1.5"/>
  <!-- Sunken eyes -->
  <ellipse cx="42" cy="40" rx="6" ry="5" fill="#1a3a0f"/>
  <circle cx="42" cy="40" r="2" fill="#c6ff00" opacity="0.8"/>
  <ellipse cx="58" cy="40" rx="6" ry="5" fill="#1a3a0f"/>
  <circle cx="58" cy="40" r="2" fill="#c6ff00" opacity="0.8"/>
  <!-- Rotting mouth -->
  <path d="M40 52 Q45 48 50 52 Q55 48 60 52" stroke="#1a3a0f" stroke-width="2" fill="none"/>
  <!-- Missing teeth gaps -->
  <line x1="44" y1="52" x2="44" y2="56" stroke="#827717" stroke-width="2"/>
  <line x1="50" y1="52" x2="50" y2="57" stroke="#827717" stroke-width="2"/>
  <line x1="56" y1="52" x2="56" y2="56" stroke="#827717" stroke-width="2"/>
  <!-- Decomposition marks -->
  <path d="M30 65 Q35 62 38 68" stroke="#558b2f" stroke-width="2" fill="none" opacity="0.6"/>
  <path d="M62 65 Q67 62 70 68" stroke="#558b2f" stroke-width="2" fill="none" opacity="0.6"/>
</svg>